# xmcd CD database file
#
# Track frame offsets:
#	150
#	18315
#	46190
#	79970
#	107644
#	141698
#	173350
#	203827
#	235403
#	269133
#	290865
#	314584
#
# Disc length: 4465 seconds
#
# Revision: 0
# Processed by: cddbd v1.5.1PL2 Copyright (c) Steve Scherf et al.
# Submitted via: CDex 1.51
#
DISCID=b7116f0c
DTITLE=Various Artist - SOUL CITY inner city grooves
DYEAR=2005
DGENRE=Club
TTITLE0=Take A Ride(Roy Davis Jr)
TTITLE1=Lady(Big Bong)
TTITLE2=Treasure Everywhere(Passion Dance Orchestra)
TTITLE3=I Feel(Solu)
TTITLE4=Let the Wind Blow(Santiago Dub)(Fertile Ground)
TTITLE5=Weekend Joy(Needs)
TTITLE6=People Need People(Pixel)
TTITLE7=Park Jam(Doctor M)
TTITLE8=This Time(Solu)
TTITLE9=I Got You(Platinum Pipers feat Tiombe Lockhart)
TTITLE10=Sola(Dimension 6)
TTITLE11=Melodies From Heaven(Roy Davis Jr)
EXTD=YEAR: 2005.12.21
EXTT0=
EXTT1=
EXTT2=
EXTT3=
EXTT4=
EXTT5=
EXTT6=
EXTT7=
EXTT8=
EXTT9=
EXTT10=
EXTT11=
PLAYORDER=
